<?xml version="1.0" encoding="utf-8"?>
<!-- Generator: Adobe Illustrator 16.0.4, SVG Export Plug-In . SVG Version: 6.00 Build 0)  -->
<!DOCTYPE svg PUBLIC "-//W3C//DTD SVG 1.1//EN" "http://www.w3.org/Graphics/SVG/1.1/DTD/svg11.dtd">
<svg version="1.1" id="Layer_1" xmlns="http://www.w3.org/2000/svg" xmlns:xlink="http://www.w3.org/1999/xlink" x="0px" y="0px"
	 width="151px" height="33px" viewBox="0 0 151 33" enable-background="new 0 0 151 33" xml:space="preserve">
<g>
	<path fill="#FFFFFF" d="M9.395,7.611v7.887c1.013-0.604,1.509-1.465,1.875-2.607l0.258,0.129c-0.237,2.845-2.22,5.603-5.236,5.603
		c-3.039,0-5.344-2.263-5.344-5.883c0-2.758,1.659-4.46,4.03-5.947C4.655,6.706,4.375,6.663,4.03,6.663
		c-1.552,0-2.457,1.056-2.457,2.133H1.271C1.25,8.645,1.25,8.494,1.25,8.343c0-2.004,1.185-4.245,3.642-4.245
		c1.573,0,2.78,1.444,4.612,1.444c0.927,0,1.443-0.345,1.81-1.142h0.258C11.55,5.801,11.141,7.158,9.395,7.611z M5.301,6.899
		c-1.1,1.143-2.177,2.349-2.177,4.784c0,1.336,0.41,2.672,1.422,3.534l0.668-0.366V9.399l-0.69,0.367L4.31,9.421l3.232-1.81
		C6.724,7.438,6.055,7.115,5.301,6.899z M8.986,7.697C8.835,7.719,8.663,7.719,8.49,7.719c-0.302,0-0.582-0.021-0.862-0.086v6.357
		L4.87,15.498c0.582,0.431,1.229,0.646,2.134,0.646c0.732,0,1.4-0.172,1.982-0.431V7.697z M18.468,9.679v7.392
		c0,2.068-1.832,3.469-3.879,3.878l-0.129-0.215c1.013-0.496,1.681-1.379,1.681-2.457v-7.714l-1.056-0.97l-0.561,0.561v5.84
		l0.646,0.603v0.086l-1.745,1.853l-2.004-1.832v-0.086l0.776-0.819V6.274l2.284-2.435l0.043,0.021v5.732l1.875-1.982l1.875,1.702
		l0.582-0.56l0.28,0.28L18.468,9.679z M22.045,14.076v0.97l1.939,1.53l1.508-1.573l0.28,0.28l-3.06,3.275l-2.758-2.198l-0.604,0.603
		l-0.258-0.28l0.668-0.689v-5.409l4.073-2.974l2.263,3.513L22.045,14.076z M22.088,9.206l-0.043,0.021v4.332l1.875-1.379
		L22.088,9.206z"/>
	<path fill="#FFFFFF" d="M39.733,18.536l-2.996-2.585l-2.284,2.585l-3.104-2.672v-4.224h-0.604c-0.538,0-0.797,0.323-0.883,0.754
		h-0.216c-0.043-0.172-0.108-0.474-0.108-0.818c0-0.561,0.237-2.026,1.81-2.026V6.274c0-1.271-0.84-1.335-0.84-2.435
		c0-1.228,1.163-2.37,3.296-3.125L34,0.888c-0.711,0.345-1.293,0.775-1.293,1.702c0,1.422,1.379,1.056,1.379,3.297v0.862
		l2.522-2.651l2.65,2.608l2.5-2.608l2.413,2.371v7.973L39.733,18.536z M36.586,7.783l-1.508-1.487l-0.992,1.013v7.392l1.832,1.573
		l0.668-0.754V7.783z M41.457,7.503L40.25,6.296l-0.927,0.926v7.457l2.112,1.853l0.021-0.021V7.503z"/>
	<path fill="#FFFFFF" d="M51.108,18.536l-2.025-1.853H49.04l-1.788,1.853l-2.177-1.918l-0.495,0.496l-0.28-0.28l0.625-0.646V10.52
		l4.094-2.931l2.241,1.767l0.604-0.603l0.323,0.28L51.41,9.766v5.839l0.991,0.905l0.625-0.646l0.324,0.302L51.108,18.536z
		 M49.083,10.477l-1.789-1.401l-0.043,0.043v6.292l1.314,1.164l0.517-0.496V10.477z M57.832,11.511h2.026v4.611l-3.426,2.414
		c-0.453-0.517-1.099-0.884-1.896-0.884c-0.646,0-1.163,0.302-1.681,0.862l-0.302-0.107l2.974-4.267h-1.832v-4.008l3.577-2.521
		c0.431,0.345,0.776,0.56,1.336,0.56c0.431,0,1.056-0.086,1.53-0.474l0.215,0.15L57.832,11.511z M57.53,13.408h-1.013l-2.392,3.426
		l0.021,0.043c0.496-0.323,0.905-0.539,1.638-0.539c0.646,0,1.314,0.302,1.724,0.819l0.021-0.021V13.408z M58.91,9.184
		c-0.453,0.323-0.733,0.495-1.487,0.495c-0.431,0-0.948-0.193-1.358-0.625l-0.043,0.021v3.146h0.819l2.09-3.017L58.91,9.184z
		 M67.529,9.679v7.392c0,2.068-1.832,3.469-3.879,3.878l-0.129-0.215c1.013-0.496,1.681-1.379,1.681-2.457v-7.714l-1.056-0.97
		l-0.561,0.561v5.84l0.646,0.603v0.086l-1.746,1.853l-2.004-1.832v-0.086l0.775-0.819V6.274l2.285-2.435l0.043,0.021v5.732
		l1.875-1.982l1.875,1.702l0.582-0.56l0.28,0.28L67.529,9.679z M71.753,18.536l-1.789-1.638l-0.604,0.604l-0.28-0.28l0.711-0.732
		v-6.142l-0.775-0.711l-0.582,0.561l-0.28-0.28l2.177-2.306l1.637,1.487l0.582-0.604l0.302,0.302l-0.732,0.733v6.163l0.905,0.84
		l0.646-0.668l0.28,0.302L71.753,18.536z M71.128,7.417l-1.767-1.616l1.616-1.724l1.767,1.616L71.128,7.417z"/>
	<path fill="#FFFFFF" d="M81.057,18.536l-1.875-1.702v-6.292L78.17,9.593l-0.732,0.754v5.625l0.668,0.625v0.086l-1.768,1.853
		l-2.004-1.832V16.64l0.776-0.819v-5.43l-0.884-0.797L73.58,10.24l-0.301-0.28l2.198-2.349l1.961,1.745v0.432l2.047-2.177
		l1.875,1.681l0.625-0.625l0.28,0.302L81.51,9.722v6.034l0.841,0.797l0.711-0.733l0.259,0.28L81.057,18.536z M90.324,9.701v7.306
		c0,1.121,0.625,1.078,0.625,1.918c0,0.97-1.401,1.875-3.556,3.491c-0.711-0.776-1.207-1.099-1.875-1.099
		c-0.711,0-1.595,0.28-2.306,0.776l-0.215-0.172l2.952-3.469l-1.939-1.53l-0.625,0.625l-0.28-0.28l0.733-0.754V10.52l4.094-2.931
		l2.198,1.724l0.646-0.625l0.28,0.28L90.324,9.701z M88.664,18.687c-0.538-0.345-0.668-0.711-0.668-1.638v-0.323l-3.469,4.03
		l0.021,0.022c0.689-0.41,1.207-0.668,2.22-0.668c0.862,0,1.487,0.367,2.047,0.862c0.409-0.345,0.711-0.689,0.711-1.229
		C89.526,19.312,89.203,19.032,88.664,18.687z M87.996,10.477l-1.789-1.401l-0.043,0.043v6.616l1.271,0.991l0.56-0.646V10.477z
		 M94.784,18.536l-1.896-1.487l-0.582,0.582l-0.28-0.28l0.668-0.689V9.206h-1.25l-0.043-0.043l0.754-1.121h0.539V6.598l2.285-2.435
		l0.043,0.043v3.836h1.724l0.043,0.043l-0.754,1.121h-1.013v6.529l1.034,0.797l0.711-0.733l0.28,0.302L94.784,18.536z
		 M104.201,9.895v5.969l-3.642,2.693l-2.65-2.004l-0.604,0.604l-0.28-0.28l0.689-0.711v-5.818l3.814-2.737l2.457,1.918l0.625-0.625
		l0.28,0.302L104.201,9.895z M101.875,10.542l-1.811-1.422l-0.021,0.022v6.421l1.832,1.379V10.542z M112.735,18.515l-1.875-1.702
		V10.52l-1.013-0.948l-0.733,0.754v5.625l0.668,0.625v0.086l-1.767,1.853l-2.004-1.832v-0.065l0.776-0.819v-5.43l-0.884-0.797
		l-0.646,0.646l-0.302-0.28l2.198-2.349l1.96,1.746v0.432l2.047-2.177l1.875,1.681l0.625-0.625l0.28,0.302l-0.754,0.754v6.034
		l0.84,0.797l0.711-0.733l0.258,0.28L112.735,18.515z"/>
	<path fill="#FFFFFF" d="M125.96,18.536c-0.367-0.452-0.819-0.84-1.358-0.991v4.482l-0.043,0.021l-1.186-1.099l-2.5,2.306
		l-0.043-0.021v-5.797c-0.754,0.172-1.573,0.646-2.198,1.422l-0.173-0.107c0.151-1.659,0.97-2.888,2.371-3.362v-4.202h-0.453
		c-0.625,0-1.056,0.431-1.142,0.905h-0.259c-0.064-0.172-0.151-0.452-0.151-0.991c0-1.056,0.711-1.853,1.875-1.853h0.129V6.921
		l-0.776-0.689l-0.604,0.604l-0.302-0.28l2.392-2.457l2.026,1.853v2.112l0.625-0.668V4.917h0.409v2.046l2.694-2.866l2.435,2.22
		v9.374L125.96,18.536z M124.193,7.805l-0.625,0.646v12.132l0.625,0.582V7.805z M127.016,7.309l-1.271-1.164l-1.142,1.207v7.822
		c1.013,0.13,1.767,0.475,2.392,1.143l0.021-0.022V7.309z M137.51,9.895v5.969l-3.642,2.693l-2.65-2.004l-0.604,0.604l-0.28-0.28
		l0.689-0.711v-5.818l3.814-2.737l2.457,1.918l0.625-0.625l0.28,0.302L137.51,9.895z M135.184,10.542l-1.811-1.422l-0.021,0.022
		v6.421l1.832,1.379V10.542z M142.855,11.511h2.026v4.611l-3.427,2.414c-0.453-0.517-1.099-0.884-1.896-0.884
		c-0.646,0-1.164,0.302-1.681,0.862l-0.302-0.107l2.974-4.267h-1.832v-4.008l3.577-2.521c0.431,0.345,0.776,0.56,1.336,0.56
		c0.431,0,1.056-0.086,1.53-0.474l0.216,0.15L142.855,11.511z M142.553,13.408h-1.013l-2.392,3.426l0.021,0.043
		c0.496-0.323,0.905-0.539,1.638-0.539c0.646,0,1.315,0.302,1.724,0.819l0.021-0.021V13.408z M143.932,9.184
		c-0.452,0.323-0.732,0.495-1.486,0.495c-0.432,0-0.949-0.193-1.358-0.625l-0.043,0.021v3.146h0.819l2.09-3.017L143.932,9.184z
		 M148.867,18.536l-1.896-1.487l-0.582,0.582l-0.28-0.28l0.668-0.689V9.206h-1.25l-0.043-0.043l0.754-1.121h0.539V6.598l2.284-2.435
		l0.043,0.043v3.836h1.724l0.043,0.043l-0.753,1.121h-1.013v6.529l1.034,0.797l0.711-0.733l0.28,0.302L148.867,18.536z"/>
</g>
<g>
	<path fill="#FFFFFF" d="M9.2,30.872c0.186,0,0.578-0.049,0.705-0.088c0.235-0.079,0.333-0.265,0.392-0.46l1.243-4.483
		c0.02-0.068,0.069-0.254,0.069-0.293c0-0.107-0.069-0.215-0.186-0.284c-0.186-0.107-0.451-0.137-0.607-0.147l0.107-0.401h2.682
		c1.145,0,2.682,0.558,2.682,2.477c0,2.721-2.017,4.072-4.268,4.072H9.092L9.2,30.872z M15.17,27.182
		c0-1.233-0.626-2.026-1.82-2.026c-0.196,0-0.44,0.009-0.636,0.019l-1.361,4.943c-0.01,0.049-0.01,0.078-0.01,0.118
		c0,0.372,0.313,0.577,0.949,0.577C14.231,30.813,15.17,29.081,15.17,27.182z"/>
	<path fill="#FFFFFF" d="M16.995,29.756c0-1.106,1.028-3.309,2.878-3.309c0.451,0,0.881,0.225,0.881,0.812
		c0,1.38-1.732,1.879-2.731,2.046c-0.039,0.196-0.068,0.44-0.068,0.646c0,0.656,0.343,0.871,0.773,0.871
		c0.695,0,1.106-0.597,1.458-1.312l0.431,0.186c-0.656,1.262-1.38,1.693-2.095,1.693C17.807,31.391,16.995,31.048,16.995,29.756z
		 M19.971,27.358c0-0.313-0.127-0.489-0.421-0.489c-0.539,0-1.185,1.028-1.449,2.016C19.442,28.66,19.971,27.916,19.971,27.358z"/>
	<path fill="#FFFFFF" d="M27.079,30.539c0-0.235,0.089-0.519,0.216-0.852l0.577-1.537c0.069-0.177,0.186-0.539,0.186-0.725
		c0-0.353-0.225-0.431-0.45-0.431c-0.5,0-1.009,0.509-1.302,1.008l-1.047,3.259h-0.94l1.067-3.25
		c0.059-0.186,0.118-0.411,0.118-0.597c0-0.372-0.264-0.421-0.49-0.421c-0.499,0-1.213,0.793-1.39,1.321l-0.959,2.946h-0.94
		l1.086-3.25c0.088-0.274,0.186-0.666,0.186-0.793c0-0.225-0.078-0.294-0.234-0.294c-0.402,0-0.686,0.637-0.911,1.244l-0.411-0.137
		c0.372-0.949,0.792-1.586,1.488-1.586c0.44,0,0.92,0.167,0.92,0.94h0.02c0.391-0.529,0.822-0.94,1.36-0.94
		c0.686,0,1.116,0.519,1.135,0.95h0.02c0.343-0.479,0.832-0.95,1.4-0.95c0.666,0,1.146,0.539,1.146,1.165
		c0,0.147-0.118,0.558-0.196,0.773l-0.529,1.41C28.097,30.079,28,30.422,28,30.578c0,0.264,0.157,0.293,0.274,0.293
		c0.381,0,0.577-0.44,0.871-1.145l0.412,0.146c-0.372,0.891-0.773,1.488-1.468,1.488C27.706,31.361,27.079,31.195,27.079,30.539z"/>
	<path fill="#FFFFFF" d="M30.256,29.59c0-1.155,0.959-3.152,2.78-3.152c0.695,0,1.449,0.509,1.449,1.792
		c0,1.165-0.93,3.162-2.78,3.162C31.029,31.391,30.256,30.911,30.256,29.59z M33.535,28.043c0-0.881-0.323-1.194-0.686-1.194
		c-1.038,0-1.645,1.762-1.645,2.917c0,0.911,0.323,1.204,0.686,1.204C32.977,30.97,33.535,29.208,33.535,28.043z"/>
	<path fill="#FFFFFF" d="M35.377,29.727c0-1.067,1.038-3.279,2.672-3.279c0.686,0,1.058,0.46,1.058,0.94
		c0,0.499-0.226,0.822-0.568,0.822c-0.235,0-0.539-0.127-0.539-0.499c0-0.215,0.206-0.451,0.48-0.617
		c-0.04-0.176-0.226-0.244-0.529-0.244c-0.832,0-1.596,1.908-1.596,3.083c0,0.617,0.245,0.891,0.734,0.891
		c0.675,0,1.067-0.597,1.419-1.312l0.421,0.186c-0.656,1.282-1.37,1.693-2.026,1.693C36.181,31.391,35.377,31.106,35.377,29.727z"/>
	<path fill="#FFFFFF" d="M41.126,28.053c0.068-0.215,0.186-0.705,0.186-0.832c0-0.225-0.069-0.294-0.226-0.294
		c-0.401,0-0.675,0.637-0.9,1.244l-0.411-0.137c0.372-0.949,0.783-1.586,1.468-1.586c0.44,0,0.871,0.167,0.871,0.989l0.02,0.01
		c0.304-0.539,0.715-0.999,1.283-0.999c0.43,0,0.666,0.313,0.666,0.646c0,0.343-0.186,0.823-0.568,0.823
		c-0.362,0-0.509-0.216-0.509-0.46c0-0.245,0.206-0.363,0.206-0.46c0-0.029-0.059-0.029-0.088-0.029c-0.333,0-0.91,0.861-1.185,1.39
		l-0.891,2.907h-0.92L41.126,28.053z"/>
	<path fill="#FFFFFF" d="M44.397,29.785c0-1.057,1.028-3.338,2.79-3.338c0.431,0,0.783,0.225,0.861,0.734h0.02l0.225-0.636h0.92
		l-1.126,3.27c-0.088,0.254-0.167,0.597-0.167,0.783c0,0.215,0.147,0.274,0.304,0.274c0.401,0,0.636-0.597,0.852-1.145l0.411,0.146
		c-0.353,0.823-0.725,1.488-1.439,1.488c-0.44,0-0.94-0.107-0.94-0.9l-0.009,0.01c-0.343,0.558-0.862,0.92-1.38,0.92
		C45.073,31.391,44.397,31.058,44.397,29.785z M47.197,29.824l0.685-2.075c-0.088-0.587-0.323-0.872-0.773-0.872
		c-0.988,0-1.732,1.879-1.732,3.064c0,0.822,0.304,0.871,0.539,0.871C46.453,30.813,46.894,30.333,47.197,29.824z"/>
	<path fill="#FFFFFF" d="M50.146,29.727c0-1.067,1.038-3.279,2.672-3.279c0.686,0,1.058,0.46,1.058,0.94
		c0,0.499-0.226,0.822-0.568,0.822c-0.235,0-0.539-0.127-0.539-0.499c0-0.215,0.206-0.451,0.48-0.617
		c-0.04-0.176-0.226-0.244-0.529-0.244c-0.832,0-1.596,1.908-1.596,3.083c0,0.617,0.245,0.891,0.734,0.891
		c0.675,0,1.067-0.597,1.419-1.312l0.421,0.186c-0.656,1.282-1.37,1.693-2.026,1.693C50.949,31.391,50.146,31.106,50.146,29.727z"/>
	<path fill="#FFFFFF" d="M54.396,32.085c0-0.274,0.186-0.568,0.548-0.568c0.382,0,0.538,0.235,0.538,0.509
		c0,0.108-0.029,0.215-0.078,0.313c0.048,0.088,0.205,0.176,0.372,0.176c0.822,0,1.361-0.421,1.879-2.036l-0.01-0.019
		c-0.362,0.45-0.802,0.783-1.341,0.783c-0.656,0-1.116-0.548-1.116-1.165c0-0.156,0.088-0.469,0.216-0.792l0.499-1.272
		c0.127-0.333,0.196-0.666,0.196-0.793c0-0.205-0.079-0.294-0.235-0.294c-0.412,0-0.676,0.637-0.9,1.244l-0.412-0.137
		c0.372-0.949,0.783-1.586,1.479-1.586c0.479,0,0.969,0.245,0.969,0.823c0,0.254-0.088,0.548-0.225,0.89l-0.539,1.361
		c-0.078,0.206-0.196,0.538-0.196,0.724c0,0.363,0.225,0.44,0.451,0.44c0.528,0,1.037-0.44,1.341-0.93l0.979-3.21h0.93l-1.135,3.759
		c-0.637,2.104-1.605,2.613-2.966,2.613C54.573,32.917,54.396,32.409,54.396,32.085z"/>
	<path fill="#FFFFFF" d="M62.731,30.872c0.186,0,0.578-0.049,0.705-0.088c0.235-0.079,0.333-0.265,0.392-0.46l1.243-4.483
		c0.02-0.068,0.069-0.254,0.069-0.293c0-0.107-0.069-0.215-0.186-0.284c-0.186-0.107-0.451-0.137-0.607-0.147l0.107-0.401h2.682
		c1.145,0,2.682,0.558,2.682,2.477c0,2.721-2.017,4.072-4.268,4.072h-2.927L62.731,30.872z M68.702,27.182
		c0-1.233-0.626-2.026-1.82-2.026c-0.196,0-0.44,0.009-0.636,0.019l-1.361,4.943c-0.01,0.049-0.01,0.078-0.01,0.118
		c0,0.372,0.313,0.577,0.949,0.577C67.762,30.813,68.702,29.081,68.702,27.182z"/>
	<path fill="#FFFFFF" d="M70.986,30.529c0-0.245,0.098-0.539,0.225-0.861l0.626-1.615c0.118-0.293,0.215-0.714,0.215-0.832
		c0-0.225-0.078-0.294-0.235-0.294c-0.412,0-0.686,0.637-0.92,1.244l-0.411-0.137c0.362-0.949,0.812-1.586,1.508-1.586
		c0.44,0,0.949,0.157,0.949,0.891c0,0.235-0.206,0.744-0.323,1.067l-0.529,1.41c-0.098,0.264-0.206,0.616-0.206,0.773
		c0,0.284,0.167,0.294,0.293,0.294c0.392,0,0.588-0.451,0.881-1.155l0.401,0.146c-0.382,0.881-0.754,1.488-1.468,1.488
		C71.603,31.361,70.986,31.214,70.986,30.529z M72.356,25.058c0-0.382,0.313-0.685,0.666-0.685c0.392,0,0.567,0.245,0.567,0.538
		c0,0.411-0.313,0.715-0.695,0.715C72.562,25.625,72.356,25.371,72.356,25.058z"/>
	<path fill="#FFFFFF" d="M74.16,29.756c0-1.106,1.027-3.309,2.878-3.309c0.45,0,0.881,0.225,0.881,0.812
		c0,1.38-1.733,1.879-2.731,2.046c-0.039,0.196-0.068,0.44-0.068,0.646c0,0.656,0.343,0.871,0.773,0.871
		c0.695,0,1.106-0.597,1.458-1.312l0.431,0.186c-0.656,1.262-1.38,1.693-2.095,1.693C74.972,31.391,74.16,31.048,74.16,29.756z
		 M77.135,27.358c0-0.313-0.127-0.489-0.421-0.489c-0.538,0-1.184,1.028-1.449,2.016C76.606,28.66,77.135,27.916,77.135,27.358z"/>
	<path fill="#FFFFFF" d="M78.47,30.196c0-0.392,0.293-0.792,0.597-0.792c0.44,0,0.568,0.234,0.568,0.499
		c0,0.186-0.098,0.479-0.451,0.479c-0.068,0-0.127,0.01-0.127,0.04c0,0.274,0.45,0.538,0.891,0.538c0.626,0,1.116-0.225,1.116-0.763
		c0-0.509-0.411-0.705-0.802-0.939c-0.549-0.333-1.009-0.5-1.009-1.332c0-0.773,0.871-1.488,1.674-1.488
		c1.136,0,1.371,0.656,1.371,1.038c0,0.411-0.215,0.734-0.509,0.734c-0.265,0-0.539-0.137-0.539-0.46
		c0-0.411,0.362-0.49,0.431-0.578c-0.039-0.118-0.235-0.303-0.764-0.303c-0.293,0-0.871,0.205-0.871,0.753
		c0,0.538,0.353,0.646,0.764,0.91c0.479,0.304,1.067,0.617,1.067,1.36c0,0.803-0.872,1.498-1.821,1.498
		C78.871,31.391,78.47,30.696,78.47,30.196z"/>
	<path fill="#FFFFFF" d="M85.55,30.872c0.157-0.009,0.568-0.049,0.686-0.088c0.244-0.088,0.342-0.225,0.401-0.44l1.252-4.512
		c0.02-0.068,0.049-0.196,0.049-0.284c0-0.117-0.039-0.206-0.176-0.274c-0.167-0.079-0.47-0.137-0.626-0.157l0.098-0.401h2.897
		l-0.108,0.401c-0.166,0.02-0.509,0.059-0.705,0.117c-0.245,0.069-0.353,0.245-0.411,0.451l-1.234,4.502
		c-0.019,0.069-0.059,0.206-0.059,0.264c0,0.137,0.059,0.226,0.186,0.294c0.098,0.049,0.48,0.118,0.636,0.127l-0.108,0.392h-2.887
		L85.55,30.872z"/>
	<path fill="#FFFFFF" d="M93.1,30.519c0-0.225,0.098-0.499,0.225-0.841l0.568-1.527c0.098-0.265,0.176-0.558,0.176-0.744
		c0-0.343-0.196-0.411-0.431-0.411c-0.489,0-1.116,0.587-1.459,1.351l-0.958,2.917h-0.93l1.086-3.259
		c0.098-0.293,0.176-0.656,0.176-0.783c0-0.225-0.058-0.294-0.215-0.294c-0.382,0-0.695,0.637-0.92,1.244l-0.411-0.137
		c0.372-0.949,0.812-1.586,1.498-1.586c0.44,0,0.91,0.147,0.91,0.92l0.029,0.01c0.353-0.509,0.812-0.93,1.371-0.93
		c0.675,0,1.135,0.558,1.135,1.165c0,0.147-0.107,0.528-0.206,0.793l-0.528,1.41c-0.127,0.342-0.196,0.577-0.196,0.773
		c0,0.254,0.156,0.284,0.284,0.284c0.372,0,0.578-0.44,0.871-1.145l0.401,0.146c-0.362,0.891-0.763,1.488-1.458,1.488
		C93.726,31.361,93.1,31.185,93.1,30.519z"/>
	<path fill="#FFFFFF" d="M98.713,30.872c0.186,0,0.578-0.049,0.705-0.088c0.235-0.079,0.333-0.265,0.392-0.46l1.243-4.483
		c0.02-0.068,0.069-0.254,0.069-0.293c0-0.107-0.069-0.215-0.186-0.284c-0.186-0.107-0.451-0.137-0.607-0.147l0.107-0.401h2.682
		c1.145,0,2.682,0.558,2.682,2.477c0,2.721-2.017,4.072-4.268,4.072h-2.927L98.713,30.872z M104.684,27.182
		c0-1.233-0.626-2.026-1.82-2.026c-0.196,0-0.44,0.009-0.636,0.019l-1.361,4.943c-0.01,0.049-0.01,0.078-0.01,0.118
		c0,0.372,0.313,0.577,0.949,0.577C103.744,30.813,104.684,29.081,104.684,27.182z"/>
	<path fill="#FFFFFF" d="M106.508,29.785c0-1.057,1.028-3.338,2.79-3.338c0.43,0,0.783,0.225,0.861,0.734h0.02l0.225-0.636h0.92
		l-1.126,3.27c-0.088,0.254-0.167,0.597-0.167,0.783c0,0.215,0.147,0.274,0.304,0.274c0.401,0,0.636-0.597,0.852-1.145l0.411,0.146
		c-0.353,0.823-0.725,1.488-1.439,1.488c-0.44,0-0.94-0.107-0.94-0.9l-0.009,0.01c-0.343,0.558-0.862,0.92-1.38,0.92
		C107.184,31.391,106.508,31.058,106.508,29.785z M109.308,29.824l0.685-2.075c-0.088-0.587-0.323-0.872-0.773-0.872
		c-0.988,0-1.732,1.879-1.732,3.064c0,0.822,0.304,0.871,0.539,0.871C108.564,30.813,109.004,30.333,109.308,29.824z"/>
	<path fill="#FFFFFF" d="M113.568,28.053c0.068-0.215,0.186-0.705,0.186-0.832c0-0.225-0.068-0.294-0.225-0.294
		c-0.401,0-0.675,0.637-0.901,1.244l-0.411-0.137c0.372-0.949,0.783-1.586,1.469-1.586c0.44,0,0.871,0.167,0.871,0.989l0.02,0.01
		c0.304-0.539,0.715-0.999,1.283-0.999c0.431,0,0.666,0.313,0.666,0.646c0,0.343-0.186,0.823-0.568,0.823
		c-0.362,0-0.509-0.216-0.509-0.46c0-0.245,0.206-0.363,0.206-0.46c0-0.029-0.059-0.029-0.088-0.029
		c-0.333,0-0.911,0.861-1.185,1.39l-0.891,2.907h-0.92L113.568,28.053z"/>
	<path fill="#FFFFFF" d="M119.169,30.559c0-0.46,0.215-1.008,0.215-1.302c0-0.342-0.313-0.47-0.695-0.47
		c-0.088,0-0.156,0.01-0.254,0.03l-0.744,2.447h-0.93l1.684-5.383c0.098-0.313,0.146-0.539,0.146-0.675
		c0-0.215-0.156-0.265-0.342-0.284c-0.245-0.029-0.342-0.02-0.607-0.029V24.51l2.212-0.118l-1.272,3.974
		c0.118,0.01,0.225,0.02,0.362,0.02c0.548,0,0.764-0.479,0.999-0.959c0.254-0.519,0.597-0.979,1.292-0.979
		c0.617,0,0.803,0.402,0.803,0.812c0,0.382-0.245,0.744-0.597,0.744c-0.206,0-0.46-0.167-0.46-0.392c0-0.47,0.293-0.47,0.372-0.656
		c-0.03-0.127-0.107-0.157-0.255-0.157c-0.342,0-0.45,0.431-0.675,0.9c-0.156,0.333-0.421,0.666-0.871,0.871
		c0.304,0.138,0.676,0.324,0.676,0.901c0,0.558-0.157,0.842-0.157,1.136c0,0.244,0.196,0.264,0.304,0.264
		c0.392,0,0.597-0.45,0.891-1.145l0.402,0.146c-0.382,0.891-0.793,1.488-1.479,1.488C119.806,31.361,119.169,31.254,119.169,30.559z
		"/>
	<path fill="#FFFFFF" d="M125.76,30.519c0-0.225,0.098-0.499,0.225-0.841l0.568-1.527c0.098-0.265,0.176-0.558,0.176-0.744
		c0-0.343-0.195-0.411-0.431-0.411c-0.489,0-1.116,0.587-1.458,1.351l-0.959,2.917h-0.93l1.086-3.259
		c0.098-0.293,0.176-0.656,0.176-0.783c0-0.225-0.059-0.294-0.215-0.294c-0.382,0-0.695,0.637-0.92,1.244l-0.412-0.137
		c0.372-0.949,0.812-1.586,1.498-1.586c0.44,0,0.911,0.147,0.911,0.92l0.029,0.01c0.353-0.509,0.812-0.93,1.371-0.93
		c0.675,0,1.135,0.558,1.135,1.165c0,0.147-0.107,0.528-0.206,0.793l-0.528,1.41c-0.127,0.342-0.196,0.577-0.196,0.773
		c0,0.254,0.157,0.284,0.284,0.284c0.372,0,0.578-0.44,0.872-1.145l0.401,0.146c-0.362,0.891-0.763,1.488-1.458,1.488
		C126.387,31.361,125.76,31.185,125.76,30.519z"/>
	<path fill="#FFFFFF" d="M128.905,29.756c0-1.106,1.028-3.309,2.878-3.309c0.451,0,0.881,0.225,0.881,0.812
		c0,1.38-1.732,1.879-2.731,2.046c-0.039,0.196-0.068,0.44-0.068,0.646c0,0.656,0.343,0.871,0.773,0.871
		c0.695,0,1.106-0.597,1.458-1.312l0.431,0.186c-0.656,1.262-1.38,1.693-2.095,1.693C129.718,31.391,128.905,31.048,128.905,29.756z
		 M131.881,27.358c0-0.313-0.127-0.489-0.421-0.489c-0.539,0-1.185,1.028-1.449,2.016C131.353,28.66,131.881,27.916,131.881,27.358z
		"/>
	<path fill="#FFFFFF" d="M133.215,30.196c0-0.392,0.294-0.792,0.597-0.792c0.44,0,0.568,0.234,0.568,0.499
		c0,0.186-0.098,0.479-0.45,0.479c-0.068,0-0.127,0.01-0.127,0.04c0,0.274,0.45,0.538,0.891,0.538c0.626,0,1.116-0.225,1.116-0.763
		c0-0.509-0.412-0.705-0.803-0.939c-0.548-0.333-1.008-0.5-1.008-1.332c0-0.773,0.871-1.488,1.673-1.488
		c1.136,0,1.371,0.656,1.371,1.038c0,0.411-0.215,0.734-0.509,0.734c-0.264,0-0.538-0.137-0.538-0.46
		c0-0.411,0.362-0.49,0.431-0.578c-0.039-0.118-0.235-0.303-0.764-0.303c-0.293,0-0.872,0.205-0.872,0.753
		c0,0.538,0.353,0.646,0.764,0.91c0.479,0.304,1.067,0.617,1.067,1.36c0,0.803-0.872,1.498-1.821,1.498
		C133.616,31.391,133.215,30.696,133.215,30.196z"/>
	<path fill="#FFFFFF" d="M137.573,30.196c0-0.392,0.294-0.792,0.597-0.792c0.44,0,0.568,0.234,0.568,0.499
		c0,0.186-0.098,0.479-0.45,0.479c-0.068,0-0.127,0.01-0.127,0.04c0,0.274,0.45,0.538,0.891,0.538c0.626,0,1.116-0.225,1.116-0.763
		c0-0.509-0.412-0.705-0.803-0.939c-0.548-0.333-1.008-0.5-1.008-1.332c0-0.773,0.871-1.488,1.673-1.488
		c1.136,0,1.371,0.656,1.371,1.038c0,0.411-0.215,0.734-0.509,0.734c-0.264,0-0.538-0.137-0.538-0.46
		c0-0.411,0.362-0.49,0.431-0.578c-0.039-0.118-0.235-0.303-0.764-0.303c-0.293,0-0.872,0.205-0.872,0.753
		c0,0.538,0.353,0.646,0.764,0.91c0.479,0.304,1.067,0.617,1.067,1.36c0,0.803-0.872,1.498-1.821,1.498
		C137.975,31.391,137.573,30.696,137.573,30.196z"/>
</g>
</svg>
